<?xml version="1.0" standalone="no"?>
<!DOCTYPE svg PUBLIC "-//W3C//DTD SVG 20010904//EN"
 "http://www.w3.org/TR/2001/REC-SVG-20010904/DTD/svg10.dtd">
<svg version="1.0" xmlns="http://www.w3.org/2000/svg"
 width="108.000000pt" height="108.000000pt" viewBox="0 0 108.000000 108.000000"
 preserveAspectRatio="xMidYMid meet">

<g transform="translate(0.000000,108.000000) scale(0.100000,-0.100000)"
fill="#000000" stroke="none">
<path d="M0 540 l0 -540 540 0 540 0 0 540 0 540 -540 0 -540 0 0 -540z m961
194 c17 -8 37 -30 45 -49 17 -42 17 -45 0 -45 -7 0 -19 14 -26 30 -7 17 -21
35 -31 40 -10 6 -183 10 -423 10 l-405 0 -20 -26 c-19 -24 -21 -40 -21 -151 0
-68 4 -132 10 -142 5 -10 23 -24 40 -31 16 -7 30 -19 30 -26 0 -17 -3 -17 -45
0 -55 23 -65 56 -65 207 l0 131 34 34 34 34 406 0 c350 0 411 -2 437 -16z
m-773 -136 c7 -7 12 -16 12 -20 0 -13 -28 -9 -32 4 -2 6 -12 9 -21 5 -25 -9
-24 -87 1 -87 10 0 23 5 30 12 17 17 27 2 12 -17 -8 -10 -25 -15 -44 -13 -30
3 -31 5 -34 57 -3 57 5 71 43 71 12 0 26 -5 33 -12z m60 -21 c5 -41 42 -38 42
3 0 17 5 30 10 30 6 0 10 -28 10 -65 0 -37 -4 -65 -10 -65 -5 0 -10 12 -10 26
0 21 -4 25 -22 22 -17 -2 -22 -9 -20 -25 2 -16 -2 -23 -12 -23 -13 0 -16 13
-16 66 0 48 3 65 13 62 6 -3 13 -17 15 -31z m156 -28 c19 -65 16 -80 -10 -59
-13 11 -19 11 -36 1 -11 -7 -22 -11 -24 -9 -8 8 31 128 42 128 6 0 19 -27 28
-61z m96 51 c0 -5 -7 -10 -15 -10 -12 0 -15 -13 -15 -55 0 -30 -4 -55 -10 -55
-5 0 -10 25 -10 55 0 42 -3 55 -15 55 -8 0 -15 5 -15 10 0 6 18 10 40 10 22 0
40 -4 40 -10z m90 0 c0 -5 -11 -10 -25 -10 -18 0 -25 -5 -25 -20 0 -15 7 -20
26 -20 14 0 23 -4 19 -10 -3 -5 -15 -10 -26 -10 -14 0 -19 -7 -19 -25 0 -14
-4 -25 -10 -25 -6 0 -10 28 -10 65 l0 65 35 0 c19 0 35 -4 35 -10z m105 -54
c0 -51 -3 -60 -21 -67 -34 -12 -64 15 -64 57 0 55 16 76 53 72 32 -3 32 -3 32
-62z m103 52 c15 -15 15 -51 0 -66 -8 -8 -8 -15 2 -27 7 -8 10 -19 6 -23 -4
-4 -16 3 -26 16 -22 27 -30 28 -30 2 0 -11 -4 -20 -10 -20 -6 0 -10 28 -10 65
0 65 0 65 28 65 15 0 33 -5 40 -12z m74 -13 c6 -14 15 -25 19 -25 4 0 10 11
13 25 4 14 13 25 21 25 12 0 15 -14 15 -65 0 -53 -3 -65 -16 -65 -13 0 -16 7
-11 38 6 36 5 37 -10 14 l-16 -24 -13 24 c-13 22 -13 22 -14 -14 0 -21 -4 -38
-10 -38 -6 0 -10 28 -10 65 0 68 12 83 32 40z m158 -27 c7 -29 15 -59 17 -65
3 -7 -2 -13 -10 -13 -8 0 -17 6 -20 13 -3 9 -9 9 -27 -1 -12 -7 -24 -11 -27
-9 -9 9 30 127 41 127 7 0 18 -24 26 -52z m-18 -139 c-1 -13 -16 -37 -32 -54
l-30 -30 -300 -3 -299 -3 -3 -61 -3 -60 -44 61 c-27 36 -52 61 -63 61 -10 0
-18 7 -18 15 0 29 44 16 77 -22 l32 -38 -6 38 -6 37 307 0 308 0 29 29 c16 16
29 37 29 46 0 9 6 15 13 12 6 -2 11 -15 9 -28z"/>
<path d="M370 539 c0 -11 4 -18 10 -14 5 3 7 12 3 20 -7 21 -13 19 -13 -6z"/>
<path d="M640 546 c0 -40 3 -46 21 -46 18 0 20 5 17 42 -2 31 -8 44 -20 46
-15 3 -18 -4 -18 -42z"/>
<path d="M753 574 c-9 -23 11 -38 26 -20 13 16 7 36 -10 36 -5 0 -12 -7 -16
-16z"/>
<path d="M997 546 c-4 -10 -5 -21 -2 -24 9 -9 17 6 13 25 -3 17 -4 17 -11 -1z"/>
</g>
</svg>
